# xmcd
#
# Track frame offsets:
#	150
#	20739
#	45582
#	67999
#	88823
#	105099
#	120209
#	146753
#
# Disc length: 2209 seconds
#
# Revision: 1
# Processed by: cddbd v1.5.2PL0 Copyright (c) Steve Scherf et al.
# Submitted via: dBpowerAMP V4.0
#
DISCID=5f089f08
DTITLE=Various Artist - Human Thang
DYEAR=1900
DGENRE=Blues
TTITLE0=Human Thang - Sue Dallaco and Wise Fools
TTITLE1=That's Why - Zac Harman
TTITLE2=Antonio's Love Jungle - California Transit Authority
TTITLE3=Blues Over Baghdad - Fruteland Jackson
TTITLE4=Roamin' And Ramblin' - Honeyboy Edwards
TTITLE5=I'm Here To Stay - Sharrie Williams
TTITLE6=Blues Singer - Bryan Lee
TTITLE7=Black Water - Watermelon Slim and Workers
EXTD=2008 Paramount Blues Festival
EXTT0=
EXTT1=
EXTT2=
EXTT3=
EXTT4=
EXTT5=
EXTT6=
EXTT7=
PLAYORDER=
